<svg width="180" height="180" viewBox="0 0 180 180" fill="none" xmlns="http://www.w3.org/2000/svg">
<rect width="180" height="180" fill="#1D1A1A"/>
<path d="M89.8713 35V41C103.591 41 112.341 49.88 117.271 57.34C124.331 68.01 128.271 82.58 128.371 98.36C128.451 111.09 124.671 121.59 117.451 128.73C110.711 135.38 101.321 138.94 90.2813 139.01H89.9613C79.0813 139.01 69.3213 135.43 62.4913 128.94C55.0513 121.86 51.0813 111.46 51.0013 98.85C50.9213 85.41 55.5213 70.5 63.3113 58.98C70.9913 47.6 80.6013 41.06 89.6713 41H89.8713V35ZM89.8713 35C89.7913 35 89.7113 35 89.6413 35C65.8813 35.15 44.8113 68.5 45.0013 98.87C45.1913 129.1 65.4413 145 89.9713 145C90.0913 145 90.2113 145 90.3213 145C115.001 144.85 134.561 128.69 134.371 98.32C134.171 64.63 117.171 35 89.8713 35Z" fill="white"/>
<path d="M107.227 99.6055C100.35 105.764 89.9753 104.917 87.8867 89.4073C86.2728 71.4555 67.2385 74.4788 70.4746 66.1458C73.2563 59.4528 82.2845 53.0877 94.0485 56.2399C110.745 60.7135 124.577 83.1383 107.221 99.6283L107.227 99.6055Z" fill="white"/>
</svg>
