<svg width="180" height="180" viewBox="0 0 180 180" fill="none" xmlns="http://www.w3.org/2000/svg">
<rect width="180" height="180" fill="white"/>
<path d="M60.5893 42.5992H30V30H65.5847L83.826 47.1349L74.6211 55.8143L60.5893 42.6552V42.5992ZM96.4546 76.2529L110.599 89.524L60.5893 137.345H30V149.944H65.5847L123.227 95.9076V84.0364L105.603 67.4615L96.4546 76.1969V76.2529ZM105.379 124.186L96.174 132.865L114.415 150H150V137.401H119.411L105.379 124.242V124.186ZM114.415 30L56.7727 84.0364V95.9076L74.3966 112.482L83.5454 103.747L69.4013 90.476L119.411 42.5992H150V30H114.415Z" fill="#101010"/>
</svg>
