<svg width="70" height="71" viewBox="0 0 70 71" fill="none" xmlns="http://www.w3.org/2000/svg">
<path d="M68.49 1.9599C67.25 1.7499 58.99 0.989904 55.57 4.6199C53.91 3.6199 51.49 3.0599 48.26 3.5699C48.09 3.5999 47.93 3.6399 47.76 3.6699C46.27 1.8599 43.25 0.299905 39.74 1.7799C35.17 3.7099 35.67 8.66991 38.1 9.84991C38.26 9.92991 38.41 9.9599 38.56 10.0099C37.43 11.2199 36.21 12.5699 34.83 14.0399C33.32 13.7799 31.83 13.3199 30.38 12.6999C30.96 11.8999 31.42 10.9199 31.69 9.6999C32.64 5.3799 28.97 0.149905 23.64 -9.52666e-05C21.27 -0.0600953 19.05 0.759905 17.32 2.1999C13.74 -0.730095 10.41 -0.0800952 8.92001 1.7199C7.08001 3.9399 7.88001 7.8599 7.88001 7.8599C7.88001 7.8599 4.04001 6.8999 1.94001 8.8599C0.370005 10.3299 -0.379995 13.8799 2.85001 17.5299C0.940005 19.4099 -0.159995 22.0699 0.0200055 24.8799C0.350006 30.1999 5.70001 33.6899 10 32.5899C11.58 32.1799 12.77 31.4899 13.62 30.5999C14.24 32.0499 14.69 33.5499 14.93 35.0799C13.52 36.5099 12.21 37.7799 11.03 38.9499C10.98 38.5999 10.89 38.2299 10.7 37.8599C9.47001 35.4599 4.50001 35.0599 2.67001 39.6699C1.25001 43.2499 2.92001 46.2599 4.77001 47.6899C4.62001 48.2199 4.50001 48.7799 4.43001 49.3599C4.03001 52.5999 4.67001 55.0099 5.73001 56.6299C2.21001 60.1699 3.26001 68.4099 3.51001 69.6299C3.80001 71.0499 5.33001 71.3299 5.06001 68.8599C4.79001 66.4299 3.72001 63.6099 4.69001 59.8599C5.02001 58.5899 5.51001 57.7099 6.07001 57.0899C6.73001 57.9399 7.51001 58.5199 8.29001 58.8399C9.88001 59.4899 11.43 58.7799 11.67 57.2999C11.9 55.8199 10.34 54.4899 7.74001 55.3399C7.37001 55.4699 7.03001 55.6299 6.72001 55.8299C5.86001 54.1299 5.50001 51.5999 6.23001 48.4799L6.36001 48.5199C10.13 49.4799 17.33 47.1099 16.04 36.8199C15.97 36.2499 15.87 35.6899 15.76 35.1399C17.73 33.0299 19.32 30.6699 19.73 27.1699C20.67 18.9999 15.49 14.7899 9.68001 14.7899C7.42001 14.7899 5.42001 15.5199 3.82001 16.7199C2.15001 14.3799 2.10001 11.7799 3.13001 10.6399C4.32001 9.32991 5.88001 8.8499 9.20001 8.9899C8.99001 5.6699 9.42001 4.0899 10.7 2.8699C11.75 1.8799 14.09 1.8399 16.34 3.1599C14.75 4.9199 13.79 7.2999 13.88 10.0099C14.07 15.8199 18.46 20.8499 26.59 19.6299C30.37 19.0599 32.77 17.1499 34.94 14.8799C35.66 15.0299 36.4 15.1499 37.16 15.2299C47.48 16.2999 49.69 9.0499 48.66 5.2999L48.6 5.1299C51.18 4.6399 53.3 4.9499 54.8 5.6399C54.62 5.9599 54.46 6.2999 54.35 6.6799C53.59 9.2999 54.97 10.8199 56.44 10.5399C57.92 10.2499 58.57 8.6799 57.87 7.1099C57.52 6.3399 56.91 5.5799 56.05 4.9499C56.65 4.3699 57.51 3.8499 58.77 3.4799C62.49 2.3799 65.34 3.3499 67.78 3.5399C70.26 3.7299 69.92 2.2099 68.49 1.9699V1.9599ZM9.87001 55.7899C11.09 55.9999 11.45 58.0499 9.88001 58.1799C8.86001 58.2699 7.77001 57.5999 6.98001 56.3199C8.21001 55.5699 9.47001 55.7199 9.87001 55.7899ZM10.78 31.6999C8.31001 32.5799 5.67001 31.7899 3.83001 30.0099C4.64001 30.3599 5.47001 30.3099 6.05001 29.9099C7.59001 28.8599 7.31001 26.9399 6.31001 26.9699C5.31001 26.9999 5.84001 27.9199 4.36001 28.3199C2.75001 28.6099 1.98001 27.0699 1.63001 25.9499C1.47001 25.1699 1.41001 24.3499 1.50001 23.4899C1.70001 21.5099 2.58001 19.8199 3.89001 18.5599C4.15001 18.7899 4.42001 19.0299 4.71001 19.2599C8.08001 21.9399 11.39 25.7199 13.34 29.9499C12.78 30.6599 11.96 31.2799 10.78 31.6899V31.6999ZM6.47001 37.1599C9.85001 36.4099 9.90001 38.9099 9.90001 38.9099C9.90001 38.9099 8.75001 38.2199 7.98001 39.1299C7.36001 39.8599 7.58001 41.1499 8.43001 41.6399C7.15001 43.0699 6.13001 44.4299 5.43001 45.9099C2.33001 43.9299 2.68001 38.2499 6.47001 37.1599ZM6.81001 46.4899C6.94001 46.1199 7.08001 45.7399 7.25001 45.3599C7.82001 44.0299 8.54001 42.8799 9.33001 41.8299C10.1 41.7399 10.86 40.9299 11.03 39.8299C12.34 38.4399 13.74 37.1999 15.03 35.8999C15.06 36.1399 15.09 36.3899 15.1 36.6299C15.49 43.3999 11.23 47.4799 6.81001 46.4899ZM14.18 17.0099C19.91 19.5199 20.69 28.7399 15.58 34.3799C15.21 32.8199 14.72 31.3699 14.12 30.0199C15.19 28.5799 15.53 26.7699 15.31 24.9299C14.97 22.1299 11.99 21.0899 10.91 21.6499C9.84001 22.2099 10.3 23.1899 11.15 23.2099C12.48 23.1599 13.12 23.6199 13.86 24.4499C14.35 25.0099 14.86 27.3199 13.77 29.2899C10.99 23.5199 6.61001 19.7299 4.75001 17.8299C7.23001 16.0299 10.77 15.5199 14.17 17.0099H14.18ZM37.3 5.6399C38.29 1.9099 43.74 1.3799 45.9 4.2199C44.31 4.8399 42.9 5.8199 41.47 7.0999C40.85 6.6199 39.88 6.5999 39.3 7.0999C38.41 7.8899 39.12 9.0299 39.12 9.0299C39.12 9.0299 36.62 9.0299 37.3 5.6399ZM22.31 1.5299C23.17 1.4099 23.99 1.4499 24.77 1.5799C25.9 1.8899 27.47 2.5999 27.23 4.2199C26.87 5.7199 25.94 5.2199 25.94 6.2199C25.94 7.2199 27.87 7.4299 28.87 5.8599C29.25 5.2699 29.27 4.4299 28.9 3.6399C30.75 5.4199 31.62 8.0299 30.83 10.5299C30.58 11.3299 30.22 11.9599 29.81 12.4699C25.71 10.5799 22.03 7.4599 19.38 4.2599C19.06 3.8699 18.73 3.5199 18.41 3.1999C19.49 2.3399 20.8 1.7399 22.31 1.5399V1.5299ZM34.02 14.8999C28.62 20.5599 19.03 20.1799 16.27 14.4199C14.44 10.6099 15.19 6.5399 17.55 3.9999L17.82 4.2099C19.68 5.9199 23.52 10.2599 29.34 12.9899C27.32 14.8799 24.36 14.3999 23.7 13.8499C22.84 13.1399 22.37 12.5199 22.37 11.1799C22.32 10.3199 21.32 9.8999 20.8 10.9899C20.28 12.0899 21.42 15.0399 24.23 15.2799C26.39 15.4599 28.48 14.8699 29.94 13.2699C31.27 13.8499 32.7 14.3399 34.22 14.6899L34.03 14.8999H34.02ZM46.62 5.7199C47.76 10.1499 43.76 14.5399 36.94 14.2899C36.48 14.2699 36.03 14.2299 35.58 14.1799C36.78 12.8699 37.94 11.4799 39.27 10.1799C40.84 10.3199 42.07 9.2399 42.05 8.2599C42.05 8.1299 42.02 8.0199 41.99 7.9099C42.71 7.4099 43.49 6.9399 44.35 6.5299C45.13 6.1699 45.87 5.8899 46.6 5.6499L46.63 5.7199H46.62ZM57.26 8.7099C57.18 10.2899 55.12 9.9999 54.87 8.7799C54.79 8.3799 54.6 7.1299 55.3 5.8699C56.6 6.6199 57.31 7.6799 57.26 8.6999V8.7099Z" fill="white"/>
</svg>
