<svg width="70" height="71" viewBox="0 0 70 71" fill="none" xmlns="http://www.w3.org/2000/svg">
<path d="M1.85099 3.54308C4.29099 3.35308 7.141 2.38308 10.861 3.48308C12.121 3.85308 12.981 4.38308 13.571 4.95308C12.701 5.58308 12.091 6.34308 11.751 7.11308C11.051 8.68308 11.701 10.2531 13.181 10.5431C14.661 10.8331 16.041 9.30308 15.271 6.68308C15.151 6.31308 15.001 5.96308 14.821 5.64308C16.321 4.95308 18.441 4.64308 21.021 5.13308L20.961 5.30308C19.921 9.05308 22.141 16.3031 32.461 15.2331C33.221 15.1531 33.961 15.0331 34.681 14.8831C36.841 17.1531 39.251 19.0631 43.031 19.6331C51.161 20.8531 55.551 15.8231 55.741 10.0131C55.831 7.30308 54.861 4.92308 53.281 3.16308C55.531 1.84308 57.871 1.87308 58.921 2.87308C60.201 4.08308 60.641 5.67308 60.421 8.99308C63.741 8.85308 65.311 9.33308 66.491 10.6431C67.531 11.7931 67.471 14.3831 65.801 16.7231C64.211 15.5331 62.201 14.8031 59.941 14.7931C54.131 14.7931 48.951 19.0031 49.891 27.1731C50.291 30.6731 51.891 33.0431 53.851 35.1431C53.741 35.6931 53.641 36.2531 53.571 36.8231C52.281 47.1131 59.481 49.4831 63.251 48.5231L63.381 48.4831C64.111 51.6031 63.741 54.1431 62.891 55.8331C62.581 55.6431 62.241 55.4731 61.871 55.3431C59.281 54.4931 57.711 55.8231 57.941 57.3031C58.181 58.7931 59.731 59.4931 61.321 58.8431C62.101 58.5231 62.881 57.9431 63.541 57.0931C64.101 57.7131 64.591 58.5931 64.921 59.8631C65.891 63.6131 64.821 66.4331 64.551 68.8631C64.271 71.3331 65.811 71.0531 66.101 69.6331C66.351 68.4031 67.391 60.1731 63.881 56.6331C64.941 55.0131 65.581 52.6031 65.181 49.3631C65.111 48.7831 64.991 48.2331 64.841 47.6931C66.701 46.2631 68.371 43.2531 66.941 39.6731C65.111 35.0631 60.141 35.4631 58.911 37.8631C58.721 38.2331 58.631 38.6031 58.581 38.9531C57.401 37.7831 56.091 36.5231 54.681 35.0831C54.921 33.5631 55.371 32.0531 55.991 30.6031C56.841 31.4831 58.031 32.1831 59.611 32.5931C63.911 33.6931 69.271 30.2131 69.591 24.8831C69.761 22.0631 68.671 19.4131 66.751 17.5331C69.981 13.8831 69.241 10.3331 67.661 8.86308C65.561 6.89308 61.721 7.86308 61.721 7.86308C61.721 7.86308 62.521 3.94308 60.681 1.72308C59.191 -0.0769213 55.861 -0.726922 52.271 2.20308C50.541 0.763078 48.321 -0.0569214 45.961 0.00307856C40.631 0.143079 36.961 5.38308 37.911 9.71308C38.181 10.9331 38.641 11.9131 39.221 12.7131C37.781 13.3331 36.291 13.7931 34.771 14.0531C33.391 12.5831 32.171 11.2331 31.041 10.0231C31.191 9.97308 31.351 9.93308 31.501 9.86308C33.931 8.68308 34.431 3.72308 29.861 1.79308C26.341 0.313079 23.321 1.87308 21.841 3.68308C21.671 3.65308 21.511 3.61308 21.341 3.58308C18.111 3.07308 15.681 3.62308 14.031 4.63308C10.611 0.993078 2.341 1.76308 1.111 1.97308C-0.319003 2.21308 -0.649004 3.73308 1.821 3.54308H1.85099ZM62.641 56.3331C61.851 57.6131 60.761 58.2831 59.741 58.1931C58.171 58.0631 58.531 56.0031 59.751 55.8031C60.151 55.7331 61.411 55.5831 62.641 56.3331ZM56.281 29.9731C58.241 25.7431 61.541 21.9631 64.911 19.2831C65.201 19.0531 65.471 18.8131 65.731 18.5831C67.031 19.8431 67.921 21.5231 68.121 23.5131C68.201 24.3731 68.141 25.1931 67.991 25.9731C67.651 27.0931 66.881 28.6331 65.261 28.3431C63.781 27.9331 64.311 27.0231 63.311 26.9931C62.311 26.9631 62.031 28.8731 63.571 29.9331C64.151 30.3331 64.991 30.3831 65.791 30.0331C63.951 31.8231 61.311 32.6031 58.841 31.7231C57.671 31.3031 56.851 30.6831 56.281 29.9831V29.9731ZM64.191 45.9231C63.491 44.4431 62.481 43.0831 61.191 41.6531C62.051 41.1531 62.261 39.8631 61.651 39.1431C60.881 38.2331 59.731 38.9231 59.731 38.9231C59.731 38.9231 59.781 36.4231 63.161 37.1731C66.951 38.2731 67.301 43.9431 64.201 45.9231H64.191ZM54.521 36.6331C54.531 36.3831 54.571 36.1431 54.591 35.9031C55.881 37.2031 57.281 38.4431 58.591 39.8331C58.761 40.9331 59.531 41.7431 60.291 41.8331C61.081 42.8831 61.801 44.0231 62.371 45.3631C62.531 45.7431 62.671 46.1231 62.811 46.4931C58.381 47.4831 54.131 43.4031 54.521 36.6331ZM64.861 17.8431C63.011 19.7431 58.621 23.5331 55.841 29.3031C54.761 27.3431 55.261 25.0231 55.761 24.4631C56.501 23.6331 57.141 23.1731 58.471 23.2231C59.331 23.2031 59.791 22.2231 58.721 21.6631C57.641 21.1031 54.661 22.1431 54.321 24.9431C54.101 26.7831 54.441 28.5931 55.511 30.0331C54.911 31.3831 54.411 32.8431 54.051 34.3931C48.941 28.7631 49.721 19.5331 55.451 17.0231C58.851 15.5331 62.391 16.0431 64.871 17.8431H64.861ZM30.491 9.05308C30.491 9.05308 31.201 7.91308 30.311 7.12308C29.731 6.61308 28.761 6.64308 28.141 7.12308C26.711 5.84308 25.301 4.86308 23.711 4.24308C25.871 1.40308 31.311 1.94308 32.311 5.66308C32.991 9.05308 30.491 9.05308 30.491 9.05308ZM51.211 3.20308C50.891 3.53308 50.571 3.88308 50.241 4.26308C47.581 7.47308 43.901 10.5831 39.801 12.4731C39.391 11.9631 39.041 11.3331 38.791 10.5331C38.001 8.03308 38.871 5.42308 40.721 3.64308C40.351 4.43308 40.371 5.27308 40.741 5.86308C41.741 7.43308 43.671 7.22308 43.671 6.22308C43.671 5.22308 42.741 5.72308 42.381 4.22308C42.151 2.60308 43.711 1.88308 44.841 1.58308C45.621 1.45308 46.441 1.42308 47.301 1.53308C48.801 1.73308 50.121 2.33308 51.201 3.19308L51.211 3.20308ZM35.411 14.7131C36.931 14.3531 38.371 13.8731 39.691 13.2931C41.161 14.8931 43.251 15.4831 45.401 15.3031C48.211 15.0631 49.351 12.1131 48.831 11.0131C48.311 9.92308 47.311 10.3431 47.261 11.2031C47.261 12.5331 46.781 13.1531 45.931 13.8731C45.271 14.4231 42.311 14.9031 40.291 13.0131C46.101 10.2931 49.941 5.94308 51.811 4.23308L52.081 4.02308C54.441 6.57308 55.181 10.6431 53.361 14.4431C50.601 20.2031 41.011 20.5831 35.601 14.9231L35.411 14.7131ZM23.021 5.65308C23.751 5.89308 24.491 6.17308 25.271 6.53308C26.131 6.93308 26.911 7.40308 27.631 7.91308C27.601 8.02308 27.571 8.13308 27.571 8.26308C27.541 9.25308 28.781 10.3231 30.351 10.1831C31.671 11.4831 32.841 12.8731 34.041 14.1831C33.591 14.2431 33.131 14.2831 32.681 14.2931C25.861 14.5431 21.861 10.1531 23.001 5.72308L23.031 5.65308H23.021ZM14.311 5.89308C15.021 7.14308 14.831 8.40308 14.751 8.80308C14.501 10.0131 12.441 10.3031 12.361 8.73308C12.311 7.71308 13.011 6.65308 14.321 5.90308L14.311 5.89308Z" fill="white"/>
</svg>
