<svg width="15" height="430" viewBox="0 0 15 430" fill="none" xmlns="http://www.w3.org/2000/svg">
<g clip-path="url(#clip0_970_20)">
<path d="M2.98998 257.72C2.98998 260.6 4.95998 262.94 7.40998 263L7.40998 265.03C7.40998 268.3 2.98998 274.65 2.98998 274.65C6.41998 281.12 7.57998 308.86 7.60998 309.44L7.60999 428.39C7.60999 428.87 7.99999 429.25 8.47999 429.25C8.95999 429.25 9.34999 428.86 9.34999 428.39L9.34998 309.64C9.73998 286.18 12.43 273.49 12.43 273.49C9.23998 270.97 8.53998 265.53 8.41998 262.91C10.49 262.43 12.05 260.29 12.05 257.73C12.05 254.81 10.03 252.44 7.52998 252.44C5.02998 252.44 3.00998 254.81 3.00998 257.73L2.98998 257.72ZM11.26 274.83C11.26 274.83 8.56998 286.75 8.37998 296.75C8.37998 296.75 7.60998 281.37 4.72998 275.4C4.72998 275.4 7.41998 271.17 7.99998 269.44C7.99998 269.44 9.91998 273.67 11.27 274.82L11.26 274.83ZM10.68 258.01C10.68 259.6 9.34998 260.89 7.69998 260.89C6.04998 260.89 4.71998 259.6 4.71998 258.01C4.71998 256.42 6.04998 255.13 7.69998 255.13C9.34998 255.13 10.68 256.42 10.68 258.01Z" fill="#202020"/>
<path d="M7.59997 1.74995L7.59998 120.71C7.57998 121.29 6.40998 149.03 2.97998 155.5C2.97998 155.5 7.39998 161.85 7.39998 165.12L7.39998 167.14C4.94998 167.2 2.97998 169.54 2.97998 172.42C2.97998 175.3 4.99998 177.71 7.49998 177.71C9.99998 177.71 12.02 175.34 12.02 172.42C12.02 169.86 10.46 167.72 8.38998 167.23C8.51998 164.61 9.20998 159.16 12.4 156.65C12.4 156.65 9.70998 143.96 9.31998 120.5L9.31997 1.74995C9.31997 1.26995 8.92997 0.889969 8.44997 0.889969C7.96997 0.889969 7.57997 1.27995 7.57997 1.74995L7.59997 1.74995ZM10.68 172.14C10.68 173.73 9.34998 175.02 7.69998 175.02C6.04998 175.02 4.71998 173.73 4.71998 172.14C4.71998 170.55 6.04998 169.26 7.69998 169.26C9.34998 169.26 10.68 170.55 10.68 172.14ZM11.26 155.31C9.90998 156.46 7.98998 160.7 7.98998 160.7C7.40998 158.97 4.71998 154.74 4.71998 154.74C7.59998 148.78 8.36998 133.39 8.36998 133.39C8.55998 143.39 11.25 155.31 11.25 155.31L11.26 155.31Z" fill="#202020"/>
<path d="M6.65998 235.57C9.50998 231.71 7.58998 224.05 4.90998 217.91C2.21998 211.76 0.289978 205.99 0.289978 205.99C-0.860022 209.45 3.63998 217.42 6.05998 225.61C8.16998 232.75 6.83998 235.27 6.65998 235.57Z" fill="#202020"/>
<path d="M8.03998 193.87C7.02998 194.88 5.95998 198.16 8.17998 204.83C9.90998 210.02 12.94 217.52 12.94 217.52C13.52 211.9 11.07 210.45 8.75998 203.1C6.67998 196.46 8.03998 193.87 8.03998 193.87Z" fill="#202020"/>
<path d="M0.249964 190.2C-0.300036 197.8 2.43996 204.24 5.08996 210.47L6.22996 213.17C8.98996 219.65 12.77 228.53 12.51 236.68C12.27 244.12 10.32 248.39 7.16997 248.39C4.40997 248.39 2.80997 245.75 2.40997 240.54C2.00997 235.3 5.10997 230.76 5.13997 230.72C5.41997 230.33 5.31997 229.79 4.92997 229.52C4.53997 229.25 3.99997 229.34 3.72997 229.73C3.58997 229.93 0.239966 234.81 0.689966 240.68C1.28997 248.49 4.54997 250.13 7.17997 250.13C9.65997 250.13 13.87 248.39 14.25 236.75C14.53 228.22 11.21 219.56 8.37997 212.93L7.23996 210.24C4.66996 204.2 1.46996 197.54 1.98996 190.35C2.60996 181.86 5.31996 180.77 7.61996 180.77C8.27996 180.77 8.84996 181.02 9.35996 181.55C10.71 182.95 11.48 186.12 11.37 189.83C11.23 194.34 9.93996 197.71 9.91996 197.75C9.70996 198.18 9.88996 198.7 10.32 198.91C10.75 199.12 11.27 198.94 11.47 198.51C11.56 198.32 12.95 194.78 13.09 189.89C13.22 185.66 12.28 182.1 10.59 180.35C9.74996 179.48 8.74996 179.05 7.60996 179.05C3.14996 179.05 0.809963 182.6 0.259964 190.24L0.249964 190.2Z" fill="#202020"/>
</g>
<defs>
<clipPath id="clip0_970_20">
<rect width="428.36" height="14.14" fill="white" transform="translate(0.109985 429.25) rotate(-90)"/>
</clipPath>
</defs>
</svg>
