<svg width="20" height="20" viewBox="0 0 20 20" fill="none" xmlns="http://www.w3.org/2000/svg">
<g clip-path="url(#clip0_992_82)">
<path d="M10 0.3125C4.64844 0.3125 0.3125 4.64844 0.3125 10C0.3125 15.3516 4.64844 19.6875 10 19.6875C15.3516 19.6875 19.6875 15.3516 19.6875 10C19.6875 4.64844 15.3516 0.3125 10 0.3125ZM4.00781 6.59766L5.37109 6.40234L5.97656 5.16797C6.08984 4.94141 6.40625 4.94141 6.51953 5.16797L7.125 6.40234L8.48828 6.59766C8.73047 6.63672 8.83594 6.93359 8.65625 7.11328L7.66406 8.07422L7.89844 9.4375C7.9375 9.67969 7.69141 9.86719 7.46875 9.74609L6.25 9.11328L5.02734 9.75C4.80469 9.87109 4.55859 9.68359 4.59766 9.44141L4.83203 8.07812L3.83984 7.11719C3.66016 6.93359 3.76562 6.63672 4.00781 6.59766ZM10 16.875C7.63281 16.875 4.74609 15.3789 4.38281 13.2305C4.30469 12.7695 4.74609 12.3906 5.19141 12.5312C6.37109 12.9102 8.125 13.125 10 13.125C11.875 13.125 13.6289 12.9102 14.8086 12.5312C15.2578 12.3867 15.6914 12.7695 15.6172 13.2305C15.2539 15.3789 12.3672 16.875 10 16.875ZM16.1602 7.11328L15.168 8.07422L15.4023 9.4375C15.4414 9.67969 15.1953 9.86719 14.9727 9.74609L13.75 9.11328L12.5273 9.75C12.3047 9.87109 12.0586 9.68359 12.0977 9.44141L12.332 8.07812L11.3398 7.11719C11.1641 6.9375 11.2656 6.64062 11.5078 6.60156L12.8711 6.40625L13.4766 5.17188C13.5898 4.94531 13.9062 4.94531 14.0195 5.17188L14.625 6.40625L15.9883 6.60156C16.2344 6.63672 16.3398 6.93359 16.1602 7.11328Z" fill="white"/>
</g>
<defs>
<clipPath id="clip0_992_82">
<rect width="20" height="20" fill="white"/>
</clipPath>
</defs>
</svg>
