<svg width="21" height="20" viewBox="0 0 21 20" fill="none" xmlns="http://www.w3.org/2000/svg">
<path d="M12.3789 7.97657V10.7539C12.3789 10.8242 12.3242 10.8789 12.2539 10.8789H11.8086C11.7656 10.8789 11.7266 10.8555 11.707 10.8281L10.4336 9.10938V10.7578C10.4336 10.8281 10.3789 10.8828 10.3086 10.8828H9.86329C9.79298 10.8828 9.73829 10.8281 9.73829 10.7578V7.98048C9.73829 7.91016 9.79298 7.85548 9.86329 7.85548H10.3047C10.3438 7.85548 10.3867 7.87501 10.4063 7.91016L11.6797 9.62891V7.98048C11.6797 7.91016 11.7344 7.85548 11.8047 7.85548H12.25C12.3203 7.85157 12.3789 7.91016 12.3789 7.97657ZM9.17579 7.85157H8.73048C8.66016 7.85157 8.60548 7.90626 8.60548 7.97657V10.7539C8.60548 10.8242 8.66016 10.8789 8.73048 10.8789H9.17579C9.2461 10.8789 9.30079 10.8242 9.30079 10.7539V7.97657C9.30079 7.91016 9.2461 7.85157 9.17579 7.85157ZM8.10157 10.1797H6.88673V7.97657C6.88673 7.90626 6.83204 7.85157 6.76173 7.85157H6.31641C6.2461 7.85157 6.19141 7.90626 6.19141 7.97657V10.7539C6.19141 10.7891 6.20313 10.8164 6.22657 10.8399C6.25001 10.8594 6.27735 10.875 6.31251 10.875H8.09766C8.16798 10.875 8.22266 10.8203 8.22266 10.75V10.3047C8.22266 10.2383 8.16798 10.1797 8.10157 10.1797ZM14.7227 7.85157H12.9375C12.8711 7.85157 12.8125 7.90626 12.8125 7.97657V10.7539C12.8125 10.8203 12.8672 10.8789 12.9375 10.8789H14.7227C14.793 10.8789 14.8477 10.8242 14.8477 10.7539V10.3086C14.8477 10.2383 14.793 10.1836 14.7227 10.1836H13.5078V9.71485H14.7227C14.793 9.71485 14.8477 9.66016 14.8477 9.58985V9.14063C14.8477 9.07032 14.793 9.01563 14.7227 9.01563H13.5078V8.54688H14.7227C14.793 8.54688 14.8477 8.4922 14.8477 8.42188V7.97657C14.8438 7.91016 14.7891 7.85157 14.7227 7.85157ZM19.25 4.44141V15.5859C19.2461 17.3359 17.8125 18.7539 16.0586 18.75H4.91407C3.16407 18.7461 1.7461 17.3086 1.75001 15.5586V4.41407C1.75391 2.66407 3.19141 1.2461 4.94141 1.25001H16.0859C17.8359 1.25391 19.2539 2.68751 19.25 4.44141ZM16.8438 9.23048C16.8438 6.37891 13.9844 4.0586 10.4727 4.0586C6.96095 4.0586 4.10157 6.37891 4.10157 9.23048C4.10157 11.7852 6.3672 13.9258 9.4297 14.332C10.1758 14.4922 10.0899 14.7656 9.92188 15.7695C9.89454 15.9297 9.79298 16.3984 10.4727 16.1133C11.1524 15.8281 14.1406 13.9531 15.4805 12.4141C16.4024 11.3984 16.8438 10.3711 16.8438 9.23048Z" fill="white"/>
</svg>
